<svg width="100" height="100" viewBox="0 0 100 100" fill="none" xmlns="http://www.w3.org/2000/svg">
<path d="M14.6447 85.3555C24.0885 94.7992 36.6445 100 50 100C63.3557 100 75.9117 94.799 85.3555 85.3555C94.799 75.9117 100 63.3555 100 50C100 36.6443 94.799 24.0883 85.3555 14.6445C75.9117 5.20098 63.3557 0 50 0C36.6445 0 24.0885 5.20098 14.6447 14.6445C5.20097 24.0885 0 36.6445 0 50C0 63.3555 5.20097 75.9115 14.6447 85.3555ZM21.7018 47.5621L59.3582 22.4582C59.8484 22.1312 60.415 21.966 60.9834 21.966C61.4574 21.966 61.9324 22.0809 62.3656 22.3127C63.3182 22.8223 63.9129 23.8152 63.9129 24.8957V75.1041C63.9129 76.1846 63.3182 77.1773 62.3656 77.6871C61.4133 78.1969 60.2572 78.1412 59.3582 77.5416L21.7018 52.4375C20.8867 51.8941 20.3971 50.9793 20.3971 49.9998C20.3973 49.0201 20.8867 48.1057 21.7018 47.5621Z" fill="#DF9B17"/>
</svg>
