<svg width="100" height="100" viewBox="0 0 100 100" fill="none" xmlns="http://www.w3.org/2000/svg">
<path d="M85.3553 14.6445C75.9115 5.20078 63.3555 0 50 0C36.6443 0 24.0883 5.20098 14.6445 14.6445C5.20098 24.0883 0 36.6445 0 50C0 63.3557 5.20098 75.9117 14.6445 85.3555C24.0883 94.799 36.6443 100 50 100C63.3555 100 75.9115 94.799 85.3553 85.3555C94.799 75.9115 100 63.3555 100 50C100 36.6445 94.799 24.0885 85.3553 14.6445ZM78.2982 52.4379L40.6418 77.5418C40.1516 77.8688 39.585 78.034 39.0166 78.034C38.5426 78.034 38.0676 77.9191 37.6344 77.6873C36.6818 77.1777 36.0871 76.1848 36.0871 75.1043V24.8959C36.0871 23.8154 36.6818 22.8227 37.6344 22.3129C38.5867 21.8031 39.7428 21.8588 40.6418 22.4584L78.2982 47.5625C79.1133 48.1059 79.6029 49.0207 79.6029 50.0002C79.6027 50.9799 79.1133 51.8943 78.2982 52.4379Z" fill="#DF9B17"/>
</svg>
